<svg width="1103" height="1103" viewBox="0 0 1103 1103" fill="none" xmlns="http://www.w3.org/2000/svg">
<mask id="mask0_57_19" style="mask-type:alpha" maskUnits="userSpaceOnUse" x="239" y="239" width="626" height="625">
<path d="M455.906 526.219L526.219 455.906L467.625 397.313L430.125 434.813L397.312 402L434.812 364.5L376.219 306.688L305.906 377L455.906 526.219ZM726.219 798.094L796.531 727L737.938 668.406L700.438 705.906L667.625 673.094L705.125 635.594L647.312 577.781L577 648.094L726.219 798.094ZM392.625 833.25H270.75V711.375L422.312 559.813L239.5 377L375.438 239.5L559.812 423.094L698.875 284.031C703.562 279.344 708.771 275.958 714.5 273.875C720.229 271.792 725.958 270.75 731.688 270.75C737.417 270.75 743.146 271.792 748.875 273.875C754.604 275.958 759.812 279.344 764.5 284.031L819.969 339.5C824.656 344.188 828.042 349.396 830.125 355.125C832.208 360.854 833.25 366.583 833.25 372.313C833.25 378.042 832.208 383.771 830.125 389.5C828.042 395.229 824.656 400.438 819.969 405.125L680.906 544.188L864.5 727.781L727.781 863.719L544.969 680.906L392.625 833.25ZM317.625 786.375H372.312L679.344 478.563L624.656 423.875L317.625 731.688V786.375ZM652 451.219L624.656 423.875L679.344 478.563L652 451.219Z" fill="#634FA2"/>
</mask>
<g mask="url(#mask0_57_19)">
<rect x="74.1133" width="955" height="1103" fill="url(#paint0_linear_57_19)"/>
</g>
<path d="M544.113 44.7451C548.754 42.0656 554.472 42.0656 559.113 44.7451L986.727 291.627C991.367 294.306 994.226 299.258 994.227 304.617V798.383C994.226 803.574 991.543 808.384 987.156 811.115L986.726 811.373L559.113 1058.26C554.472 1060.94 548.754 1060.94 544.113 1058.26L116.5 811.373C111.859 808.694 109 803.742 109 798.383V304.617C109 299.258 111.859 294.306 116.5 291.627L544.113 44.7451Z" stroke="url(#paint1_linear_57_19)" stroke-width="70"/>
<defs>
<linearGradient id="paint0_linear_57_19" x1="551.613" y1="0" x2="551.613" y2="1103" gradientUnits="userSpaceOnUse">
<stop stop-color="#7F559D"/>
<stop offset="0.495192" stop-color="#D871BB"/>
<stop offset="1" stop-color="#D19292"/>
</linearGradient>
<linearGradient id="paint1_linear_57_19" x1="551.613" y1="0" x2="551.613" y2="1103" gradientUnits="userSpaceOnUse">
<stop stop-color="#7F559D"/>
<stop offset="0.495192" stop-color="#D871BB"/>
<stop offset="1" stop-color="#D19292"/>
</linearGradient>
</defs>
</svg>
