<svg width="24" height="24" viewBox="0 0 24 24" fill="none" xmlns="http://www.w3.org/2000/svg">
<path d="M6 22C5.45 22 4.97917 21.8042 4.5875 21.4125C4.19583 21.0208 4 20.55 4 20V4C4 3.45 4.19583 2.97917 4.5875 2.5875C4.97917 2.19583 5.45 2 6 2H14L20 8V20C20 20.55 19.8042 21.0208 19.4125 21.4125C19.0208 21.8042 18.55 22 18 22H6ZM13 9V4H6V20H18V9H13Z" fill="#F0F0F0"/>
<path fill-rule="evenodd" clip-rule="evenodd" d="M9.2875 16.7125C9.47917 16.9042 9.71667 17 10 17H14C14.2833 17 14.5208 16.9042 14.7125 16.7125C14.9042 16.5208 15 16.2833 15 16C15 15.7167 14.9042 15.4792 14.7125 15.2875C14.5208 15.0958 14.2833 15 14 15H10C9.71667 15 9.47917 15.0958 9.2875 15.2875C9.09583 15.4792 9 15.7167 9 16C9 16.2833 9.09583 16.5208 9.2875 16.7125ZM9.2875 12.7125C9.47917 12.9042 9.71667 13 10 13H14C14.2833 13 14.5208 12.9042 14.7125 12.7125C14.9042 12.5208 15 12.2833 15 12C15 11.7167 14.9042 11.4792 14.7125 11.2875C14.5208 11.0958 14.2833 11 14 11H10C9.71667 11 9.47917 11.0958 9.2875 11.2875C9.09583 11.4792 9 11.7167 9 12C9 12.2833 9.09583 12.5208 9.2875 12.7125Z" fill="#F0F0F0"/>
</svg>
