<svg width="1103" height="1103" viewBox="0 0 1103 1103" fill="none" xmlns="http://www.w3.org/2000/svg">
<mask id="mask0_38_233" style="mask-type:alpha" maskUnits="userSpaceOnUse" x="214" y="201" width="680" height="899">
<path fill-rule="evenodd" clip-rule="evenodd" d="M765.687 985.507C762.6 987.353 759.536 989.185 756.5 991C747.814 996.191 736.087 1003.64 722.554 1012.23C668.311 1046.66 585.059 1099.5 552.413 1099.5C522.498 1099.5 459.329 1059.43 412.585 1029.78C395.589 1019 380.765 1009.6 370.5 1004C366.431 1001.78 361.478 999.11 355.854 996.077L355.772 996.033L355.762 996.027C317.137 975.199 246.989 937.374 214 911.5C229.536 900.534 262.572 865.512 298.836 827.069C350.865 771.913 409.538 709.715 432.701 701.411C472.01 687.319 511.689 680.274 551.739 680.274C591.789 680.274 631.468 687.319 670.776 701.411C700.524 712.075 793.333 808.308 851.455 868.574L851.47 868.589L851.479 868.599C870.147 887.956 885.234 903.599 893.5 911.5C852.106 933.825 806.819 960.908 765.687 985.507Z" fill="#D9D9D9"/>
<path fill-rule="evenodd" clip-rule="evenodd" d="M392.562 567C350.272 524.71 328.716 472.71 327.888 411L360.859 411L395.645 411C396.441 428.606 402.961 443.53 415.204 455.774H463.688H512.172C524.876 443.069 531.481 429.478 531.859 411C531.859 411 543.565 411.144 551.644 411C560.228 410.847 572.776 411 572.776 411C573.154 429.478 579.668 443.069 592.372 455.774H640.856H689.34C701.583 443.53 708.103 428.606 708.899 411H740.859H776.652C775.824 472.71 754.272 524.71 711.982 567C669.317 609.665 616.77 635.434 554.341 635.991C553.653 635.997 552.963 636 552.272 636C551.581 636 550.891 635.997 550.203 635.991C487.774 635.434 435.227 609.665 392.562 567ZM708.899 393H741.859H776.859C771.272 341.817 717.359 272.5 689.34 248.5C658.706 222.261 615.61 201 552.272 201C488.934 201 448.421 215.36 415.204 247C379.859 274 333.354 341.726 327.859 393H359.859H395.645C395.645 377.187 400.018 373.113 408.855 364.881C410.763 363.103 412.879 361.132 415.204 358.807H463.688H512.172C514.557 361.193 516.729 363.206 518.685 365.02C527.465 373.159 531.905 377.276 531.905 393H551.644H572.776C572.776 377.206 577.163 373.123 585.988 364.911C587.906 363.126 590.034 361.145 592.372 358.807H640.856H689.34C691.595 361.063 693.654 362.99 695.517 364.733C704.415 373.061 708.844 377.207 708.899 393Z" fill="#D9D9D9"/>
<path fill-rule="evenodd" clip-rule="evenodd" d="M711.982 567C754.272 524.71 775.824 472.71 776.652 411C776.652 411 769.584 506.097 772 567C773.055 593.601 776.793 635 776.793 635L554.341 635.991C616.77 635.434 669.317 609.665 711.982 567Z" fill="#D9D9D9"/>
<path fill-rule="evenodd" clip-rule="evenodd" d="M327.888 411C328.716 472.71 350.272 524.71 392.562 567C435.227 609.665 487.774 635.434 550.203 635.991L328.028 635C328.028 635 331.905 593.604 333 567C335.506 506.099 327.888 411 327.888 411Z" fill="#D9D9D9"/>
<path fill-rule="evenodd" clip-rule="evenodd" d="M741.859 393H776.859L776.652 411H740.859L741.859 393Z" fill="#D9D9D9"/>
<path fill-rule="evenodd" clip-rule="evenodd" d="M327.859 393H359.859L360.859 411L327.888 411L327.859 393Z" fill="#D9D9D9"/>
</mask>
<g mask="url(#mask0_38_233)">
<path fill-rule="evenodd" clip-rule="evenodd" d="M526.5 14.4338C541.97 5.50219 561.03 5.5022 576.5 14.4338L1004.11 261.316C1019.58 270.248 1029.11 286.754 1029.11 304.618V798.383C1029.11 816.246 1019.58 832.752 1004.11 841.684L576.5 1088.57C561.03 1097.5 541.97 1097.5 526.5 1088.57L98.8869 841.684C83.4169 832.752 73.887 816.246 73.887 798.383V304.618C73.887 286.754 83.4169 270.248 98.887 261.316L526.5 14.4338ZM742.5 394.231C742.5 498.976 660.146 601.5 553.49 601.5C447.083 601.5 359.5 499.253 359.5 394.231C359.5 372.791 364.624 356.141 374.455 343.649C384.265 331.185 398.098 323.705 413.923 319.324C444.784 310.781 485.785 313.433 526.348 316.057L527.415 316.126C548.518 317.491 569.693 318.857 590.016 318.857C612.78 318.857 632.594 317.141 649.87 315.643L650.237 315.611C664.601 314.365 677.559 313.24 688.655 313.553C699.854 313.868 710.154 315.648 718.708 320.986C727.495 326.47 733.472 335.086 737.203 347.082C740.875 358.885 742.5 374.331 742.5 394.231Z" fill="url(#paint0_linear_38_233)"/>
<path fill-rule="evenodd" clip-rule="evenodd" d="M526.5 14.4338C541.97 5.50219 561.03 5.5022 576.5 14.4338L1004.11 261.316C1019.58 270.248 1029.11 286.754 1029.11 304.618V798.383C1029.11 816.246 1019.58 832.752 1004.11 841.684L576.5 1088.57C561.03 1097.5 541.97 1097.5 526.5 1088.57L98.8869 841.684C83.4169 832.752 73.887 816.246 73.887 798.383V304.618C73.887 286.754 83.4169 270.248 98.887 261.316L526.5 14.4338ZM742.5 394.231C742.5 498.976 660.146 601.5 553.49 601.5C447.083 601.5 359.5 499.253 359.5 394.231C359.5 372.791 364.624 356.141 374.455 343.649C384.265 331.185 398.098 323.705 413.923 319.324C444.784 310.781 485.785 313.433 526.348 316.057L527.415 316.126C548.518 317.491 569.693 318.857 590.016 318.857C612.78 318.857 632.594 317.141 649.87 315.643L650.237 315.611C664.601 314.365 677.559 313.24 688.655 313.553C699.854 313.868 710.154 315.648 718.708 320.986C727.495 326.47 733.472 335.086 737.203 347.082C740.875 358.885 742.5 374.331 742.5 394.231Z" stroke="black"/>
</g>
<path d="M544 44.7451C548.641 42.0656 554.359 42.0656 559 44.7451L986.614 291.627C991.254 294.306 994.113 299.258 994.114 304.617V798.383C994.113 803.574 991.43 808.384 987.043 811.115L986.613 811.373L559 1058.26C554.359 1060.94 548.641 1060.94 544 1058.26L116.387 811.373C111.746 808.694 108.887 803.742 108.887 798.383V304.617C108.887 299.258 111.746 294.306 116.387 291.627L544 44.7451Z" stroke="url(#paint1_linear_38_233)" stroke-width="70"/>
<defs>
<linearGradient id="paint0_linear_38_233" x1="551.5" y1="1.301e-07" x2="551.5" y2="1103" gradientUnits="userSpaceOnUse">
<stop stop-color="#7F559D"/>
<stop offset="0.504808" stop-color="#D871BB"/>
<stop offset="1" stop-color="#D19292"/>
</linearGradient>
<linearGradient id="paint1_linear_38_233" x1="551.5" y1="0" x2="551.5" y2="1103" gradientUnits="userSpaceOnUse">
<stop stop-color="#7F559D"/>
<stop offset="0.495192" stop-color="#D871BB"/>
<stop offset="1" stop-color="#D19292"/>
</linearGradient>
</defs>
</svg>
